%TF.GenerationSoftware,KiCad,Pcbnew,(5.1.6)-1*%
%TF.CreationDate,2020-11-05T08:07:17+01:00*%
%TF.ProjectId,DaPad4D,44615061-6434-4442-9e6b-696361645f70,v0.9*%
%TF.SameCoordinates,PX2d0e2e0PY4328bfc*%
%TF.FileFunction,Soldermask,Top*%
%TF.FilePolarity,Negative*%
%FSLAX46Y46*%
G04 Gerber Fmt 4.6, Leading zero omitted, Abs format (unit mm)*
G04 Created by KiCad (PCBNEW (5.1.6)-1) date 2020-11-05 08:07:17*
%MOMM*%
%LPD*%
G01*
G04 APERTURE LIST*
%TA.AperFunction,Profile*%
%ADD10C,0.050000*%
%TD*%
%ADD11C,3.100000*%
%ADD12C,1.801800*%
%ADD13C,4.087800*%
%ADD14O,1.800000X1.800000*%
%ADD15R,1.800000X1.800000*%
%ADD16R,1.700000X1.100000*%
%ADD17R,0.750000X0.500000*%
%ADD18C,2.100000*%
%ADD19R,2.100000X3.300000*%
%ADD20R,2.100000X2.100000*%
G04 APERTURE END LIST*
D10*
X0Y-25000D02*
X0Y19075000D01*
X99999800Y-25000D02*
X0Y-25000D01*
X99999800Y19075400D02*
X99999800Y-25000D01*
X0Y19075000D02*
X100000000Y19075000D01*
%TO.C,D5*%
X30325000Y2695000D02*
X26825000Y2695000D01*
X26825000Y6195000D02*
X30325000Y6195000D01*
X30325000Y6195000D02*
X30325000Y2695000D01*
X26825000Y6195000D02*
X26825000Y2695000D01*
%TO.C,D4*%
X49375000Y2695000D02*
X45875000Y2695000D01*
X45875000Y6195000D02*
X49375000Y6195000D01*
X49375000Y6195000D02*
X49375000Y2695000D01*
X45875000Y6195000D02*
X45875000Y2695000D01*
%TO.C,D3*%
X68425000Y2695000D02*
X64925000Y2695000D01*
X64925000Y6195000D02*
X68425000Y6195000D01*
X68425000Y6195000D02*
X68425000Y2695000D01*
X64925000Y6195000D02*
X64925000Y2695000D01*
%TO.C,D6*%
X11275000Y2695000D02*
X7775000Y2695000D01*
X7775000Y6195000D02*
X11275000Y6195000D01*
X11275000Y6195000D02*
X11275000Y2695000D01*
X7775000Y6195000D02*
X7775000Y2695000D01*
%TD*%
D11*
%TO.C,SW4*%
X70485000Y12065000D03*
X64135000Y14605000D03*
X62865000Y12065000D03*
X69215000Y14605000D03*
G36*
G01*
X75560000Y12715000D02*
X75560000Y11415000D01*
G75*
G02*
X74910000Y10765000I-650000J0D01*
G01*
X73560000Y10765000D01*
G75*
G02*
X72910000Y11415000I0J650000D01*
G01*
X72910000Y12715000D01*
G75*
G02*
X73560000Y13365000I650000J0D01*
G01*
X74910000Y13365000D01*
G75*
G02*
X75560000Y12715000I0J-650000D01*
G01*
G37*
D12*
X71755000Y9525000D03*
X61595000Y9525000D03*
D13*
X66675000Y9525000D03*
G36*
G01*
X61710000Y15255000D02*
X61710000Y13955000D01*
G75*
G02*
X61060000Y13305000I-650000J0D01*
G01*
X59710000Y13305000D01*
G75*
G02*
X59060000Y13955000I0J650000D01*
G01*
X59060000Y15255000D01*
G75*
G02*
X59710000Y15905000I650000J0D01*
G01*
X61060000Y15905000D01*
G75*
G02*
X61710000Y15255000I0J-650000D01*
G01*
G37*
%TD*%
D11*
%TO.C,SW3*%
X51435000Y12065000D03*
X45085000Y14605000D03*
X43815000Y12065000D03*
X50165000Y14605000D03*
G36*
G01*
X56510000Y12715000D02*
X56510000Y11415000D01*
G75*
G02*
X55860000Y10765000I-650000J0D01*
G01*
X54510000Y10765000D01*
G75*
G02*
X53860000Y11415000I0J650000D01*
G01*
X53860000Y12715000D01*
G75*
G02*
X54510000Y13365000I650000J0D01*
G01*
X55860000Y13365000D01*
G75*
G02*
X56510000Y12715000I0J-650000D01*
G01*
G37*
D12*
X52705000Y9525000D03*
X42545000Y9525000D03*
D13*
X47625000Y9525000D03*
G36*
G01*
X42660000Y15255000D02*
X42660000Y13955000D01*
G75*
G02*
X42010000Y13305000I-650000J0D01*
G01*
X40660000Y13305000D01*
G75*
G02*
X40010000Y13955000I0J650000D01*
G01*
X40010000Y15255000D01*
G75*
G02*
X40660000Y15905000I650000J0D01*
G01*
X42010000Y15905000D01*
G75*
G02*
X42660000Y15255000I0J-650000D01*
G01*
G37*
%TD*%
D11*
%TO.C,SW2*%
X32385000Y12065000D03*
X26035000Y14605000D03*
X24765000Y12065000D03*
X31115000Y14605000D03*
G36*
G01*
X37460000Y12715000D02*
X37460000Y11415000D01*
G75*
G02*
X36810000Y10765000I-650000J0D01*
G01*
X35460000Y10765000D01*
G75*
G02*
X34810000Y11415000I0J650000D01*
G01*
X34810000Y12715000D01*
G75*
G02*
X35460000Y13365000I650000J0D01*
G01*
X36810000Y13365000D01*
G75*
G02*
X37460000Y12715000I0J-650000D01*
G01*
G37*
D12*
X33655000Y9525000D03*
X23495000Y9525000D03*
D13*
X28575000Y9525000D03*
G36*
G01*
X23610000Y15255000D02*
X23610000Y13955000D01*
G75*
G02*
X22960000Y13305000I-650000J0D01*
G01*
X21610000Y13305000D01*
G75*
G02*
X20960000Y13955000I0J650000D01*
G01*
X20960000Y15255000D01*
G75*
G02*
X21610000Y15905000I650000J0D01*
G01*
X22960000Y15905000D01*
G75*
G02*
X23610000Y15255000I0J-650000D01*
G01*
G37*
%TD*%
D11*
%TO.C,SW1*%
X13335000Y12065000D03*
X6985000Y14605000D03*
X5715000Y12065000D03*
X12065000Y14605000D03*
G36*
G01*
X18410000Y12715000D02*
X18410000Y11415000D01*
G75*
G02*
X17760000Y10765000I-650000J0D01*
G01*
X16410000Y10765000D01*
G75*
G02*
X15760000Y11415000I0J650000D01*
G01*
X15760000Y12715000D01*
G75*
G02*
X16410000Y13365000I650000J0D01*
G01*
X17760000Y13365000D01*
G75*
G02*
X18410000Y12715000I0J-650000D01*
G01*
G37*
D12*
X14605000Y9525000D03*
X4445000Y9525000D03*
D13*
X9525000Y9525000D03*
G36*
G01*
X4560000Y15255000D02*
X4560000Y13955000D01*
G75*
G02*
X3910000Y13305000I-650000J0D01*
G01*
X2560000Y13305000D01*
G75*
G02*
X1910000Y13955000I0J650000D01*
G01*
X1910000Y15255000D01*
G75*
G02*
X2560000Y15905000I650000J0D01*
G01*
X3910000Y15905000D01*
G75*
G02*
X4560000Y15255000I0J-650000D01*
G01*
G37*
%TD*%
D14*
%TO.C,J1*%
X78625700Y15862300D03*
X81165700Y15862300D03*
X78625700Y13322300D03*
X81165700Y13322300D03*
X78625700Y10782300D03*
X81165700Y10782300D03*
X78625700Y8242300D03*
X81165700Y8242300D03*
X78625700Y5702300D03*
X81165700Y5702300D03*
X78625700Y3162300D03*
D15*
X81165700Y3162300D03*
%TD*%
D16*
%TO.C,D5*%
X30975000Y3570000D03*
X30975000Y5320000D03*
X26175000Y3570000D03*
X26175000Y5320000D03*
%TD*%
%TO.C,D4*%
X50025000Y3570000D03*
X50025000Y5320000D03*
X45225000Y3570000D03*
X45225000Y5320000D03*
%TD*%
%TO.C,D3*%
X69075000Y3570000D03*
X69075000Y5320000D03*
X64275000Y3570000D03*
X64275000Y5320000D03*
%TD*%
%TO.C,D6*%
X11925000Y3570000D03*
X11925000Y5320000D03*
X7125000Y3570000D03*
X7125000Y5320000D03*
%TD*%
D17*
%TO.C,D1*%
X39037300Y8828800D03*
X39037300Y7528800D03*
X37137300Y8178800D03*
X39037300Y8178800D03*
X37137300Y7528800D03*
X37137300Y8828800D03*
%TD*%
D18*
%TO.C,SW5*%
X94765500Y16775000D03*
X89765500Y16775000D03*
D19*
X97865500Y9775000D03*
X86665500Y9775000D03*
D18*
X94765500Y2275000D03*
X92265500Y2275000D03*
D20*
X89765500Y2275000D03*
%TD*%
M02*
