M48
; DRILL file {KiCad (5.1.6)-1} date 11/05/20 08:08:53
; FORMAT={-:-/ absolute / metric / decimal}
; #@! TF.CreationDate,2020-11-05T08:08:53+01:00
; #@! TF.GenerationSoftware,Kicad,Pcbnew,(5.1.6)-1
FMAT,2
METRIC
T1C0.400
T2C1.000
T3C1.500
T4C1.702
T5C3.000
T6C3.988
%
G90
G05
T1
X1.965Y12.065
X2.235Y6.325
X3.235Y14.605
X5.675Y3.696
X13.779Y4.369
X15.303Y4.216
X15.815Y14.605
X17.085Y12.065
X18.542Y6.248
X21.015Y12.065
X22.285Y14.605
X24.346Y3.569
X32.715Y4.432
X34.407Y4.486
X34.865Y14.605
X36.135Y12.065
X38.849Y5.321
X40.065Y12.065
X41.335Y14.605
X43.128Y3.57
X51.714Y4.458
X53.149Y4.458
X53.915Y14.605
X55.185Y12.065
X57.912Y5.143
X59.115Y12.065
X60.385Y14.605
X62.433Y3.556
X71.117Y4.345
X72.39Y4.432
X72.965Y14.605
X74.235Y12.065
X94.882Y10.3
T2
X78.626Y15.862
X78.626Y13.322
X78.626Y10.782
X78.626Y8.242
X78.626Y5.702
X78.626Y3.162
X81.166Y15.862
X81.166Y13.322
X81.166Y10.782
X81.166Y8.242
X81.166Y5.702
X81.166Y3.162
X89.766Y16.775
X89.766Y2.275
X92.265Y2.275
X94.765Y16.775
X94.765Y2.275
T4
X23.495Y9.525
X33.655Y9.525
X42.545Y9.525
X52.705Y9.525
X61.595Y9.525
X71.755Y9.525
X4.445Y9.525
X14.605Y9.525
T5
X5.715Y12.065
X6.985Y14.605
X12.065Y14.605
X13.335Y12.065
X24.765Y12.065
X26.035Y14.605
X31.115Y14.605
X32.385Y12.065
X43.815Y12.065
X45.085Y14.605
X50.165Y14.605
X51.435Y12.065
X62.865Y12.065
X64.135Y14.605
X69.215Y14.605
X70.485Y12.065
T6
X47.625Y9.525
X66.675Y9.525
X9.525Y9.525
X28.575Y9.525
T3
G00X86.665Y9.125
M15
G01X86.665Y10.425
M16
G05
G00X97.865Y9.125
M15
G01X97.865Y10.425
M16
G05
T0
M30
