%TF.GenerationSoftware,KiCad,Pcbnew,(5.1.6)-1*%
%TF.CreationDate,2020-11-05T08:07:17+01:00*%
%TF.ProjectId,DaPad4D,44615061-6434-4442-9e6b-696361645f70,v0.9*%
%TF.SameCoordinates,PX2d0e2e0PY4328bfc*%
%TF.FileFunction,Copper,L1,Top*%
%TF.FilePolarity,Positive*%
%FSLAX46Y46*%
G04 Gerber Fmt 4.6, Leading zero omitted, Abs format (unit mm)*
G04 Created by KiCad (PCBNEW (5.1.6)-1) date 2020-11-05 08:07:17*
%MOMM*%
%LPD*%
G01*
G04 APERTURE LIST*
%TA.AperFunction,Profile*%
%ADD10C,0.050000*%
%TD*%
%TA.AperFunction,EtchedComponent*%
%ADD11C,0.050000*%
%TD*%
%TA.AperFunction,ComponentPad*%
%ADD12O,1.700000X1.700000*%
%TD*%
%TA.AperFunction,ComponentPad*%
%ADD13R,1.700000X1.700000*%
%TD*%
%TA.AperFunction,SMDPad,CuDef*%
%ADD14R,1.600000X1.000000*%
%TD*%
%TA.AperFunction,SMDPad,CuDef*%
%ADD15R,0.650000X0.400000*%
%TD*%
%TA.AperFunction,ComponentPad*%
%ADD16C,2.000000*%
%TD*%
%TA.AperFunction,ComponentPad*%
%ADD17R,2.000000X3.200000*%
%TD*%
%TA.AperFunction,ComponentPad*%
%ADD18R,2.000000X2.000000*%
%TD*%
%TA.AperFunction,ViaPad*%
%ADD19C,0.800000*%
%TD*%
%TA.AperFunction,Conductor*%
%ADD20C,0.250000*%
%TD*%
%TA.AperFunction,Conductor*%
%ADD21C,0.450000*%
%TD*%
%TA.AperFunction,Conductor*%
%ADD22C,0.254000*%
%TD*%
G04 APERTURE END LIST*
D10*
X0Y-25000D02*
X0Y19075000D01*
X99999800Y-25000D02*
X0Y-25000D01*
X99999800Y19075400D02*
X99999800Y-25000D01*
X0Y19075000D02*
X100000000Y19075000D01*
D11*
%TO.C,D5*%
X30325000Y2695000D02*
X26825000Y2695000D01*
X26825000Y6195000D02*
X30325000Y6195000D01*
X30325000Y6195000D02*
X30325000Y2695000D01*
X26825000Y6195000D02*
X26825000Y2695000D01*
%TO.C,D4*%
X49375000Y2695000D02*
X45875000Y2695000D01*
X45875000Y6195000D02*
X49375000Y6195000D01*
X49375000Y6195000D02*
X49375000Y2695000D01*
X45875000Y6195000D02*
X45875000Y2695000D01*
%TO.C,D3*%
X68425000Y2695000D02*
X64925000Y2695000D01*
X64925000Y6195000D02*
X68425000Y6195000D01*
X68425000Y6195000D02*
X68425000Y2695000D01*
X64925000Y6195000D02*
X64925000Y2695000D01*
%TO.C,D6*%
X11275000Y2695000D02*
X7775000Y2695000D01*
X7775000Y6195000D02*
X11275000Y6195000D01*
X11275000Y6195000D02*
X11275000Y2695000D01*
X7775000Y6195000D02*
X7775000Y2695000D01*
%TD*%
%TO.P,SW4,2*%
%TO.N,Net-(D1-Pad4)*%
%TA.AperFunction,SMDPad,CuDef*%
G36*
G01*
X75510000Y12690000D02*
X75510000Y11440000D01*
G75*
G02*
X74885000Y10815000I-625000J0D01*
G01*
X73585000Y10815000D01*
G75*
G02*
X72960000Y11440000I0J625000D01*
G01*
X72960000Y12690000D01*
G75*
G02*
X73585000Y13315000I625000J0D01*
G01*
X74885000Y13315000D01*
G75*
G02*
X75510000Y12690000I0J-625000D01*
G01*
G37*
%TD.AperFunction*%
%TO.P,SW4,1*%
%TO.N,Col4*%
%TA.AperFunction,SMDPad,CuDef*%
G36*
G01*
X61660000Y15230000D02*
X61660000Y13980000D01*
G75*
G02*
X61035000Y13355000I-625000J0D01*
G01*
X59735000Y13355000D01*
G75*
G02*
X59110000Y13980000I0J625000D01*
G01*
X59110000Y15230000D01*
G75*
G02*
X59735000Y15855000I625000J0D01*
G01*
X61035000Y15855000D01*
G75*
G02*
X61660000Y15230000I0J-625000D01*
G01*
G37*
%TD.AperFunction*%
%TD*%
%TO.P,SW3,2*%
%TO.N,Net-(D1-Pad5)*%
%TA.AperFunction,SMDPad,CuDef*%
G36*
G01*
X56460000Y12690000D02*
X56460000Y11440000D01*
G75*
G02*
X55835000Y10815000I-625000J0D01*
G01*
X54535000Y10815000D01*
G75*
G02*
X53910000Y11440000I0J625000D01*
G01*
X53910000Y12690000D01*
G75*
G02*
X54535000Y13315000I625000J0D01*
G01*
X55835000Y13315000D01*
G75*
G02*
X56460000Y12690000I0J-625000D01*
G01*
G37*
%TD.AperFunction*%
%TO.P,SW3,1*%
%TO.N,Col3*%
%TA.AperFunction,SMDPad,CuDef*%
G36*
G01*
X42610000Y15230000D02*
X42610000Y13980000D01*
G75*
G02*
X41985000Y13355000I-625000J0D01*
G01*
X40685000Y13355000D01*
G75*
G02*
X40060000Y13980000I0J625000D01*
G01*
X40060000Y15230000D01*
G75*
G02*
X40685000Y15855000I625000J0D01*
G01*
X41985000Y15855000D01*
G75*
G02*
X42610000Y15230000I0J-625000D01*
G01*
G37*
%TD.AperFunction*%
%TD*%
%TO.P,SW2,2*%
%TO.N,Net-(D1-Pad1)*%
%TA.AperFunction,SMDPad,CuDef*%
G36*
G01*
X37410000Y12690000D02*
X37410000Y11440000D01*
G75*
G02*
X36785000Y10815000I-625000J0D01*
G01*
X35485000Y10815000D01*
G75*
G02*
X34860000Y11440000I0J625000D01*
G01*
X34860000Y12690000D01*
G75*
G02*
X35485000Y13315000I625000J0D01*
G01*
X36785000Y13315000D01*
G75*
G02*
X37410000Y12690000I0J-625000D01*
G01*
G37*
%TD.AperFunction*%
%TO.P,SW2,1*%
%TO.N,Col2*%
%TA.AperFunction,SMDPad,CuDef*%
G36*
G01*
X23560000Y15230000D02*
X23560000Y13980000D01*
G75*
G02*
X22935000Y13355000I-625000J0D01*
G01*
X21635000Y13355000D01*
G75*
G02*
X21010000Y13980000I0J625000D01*
G01*
X21010000Y15230000D01*
G75*
G02*
X21635000Y15855000I625000J0D01*
G01*
X22935000Y15855000D01*
G75*
G02*
X23560000Y15230000I0J-625000D01*
G01*
G37*
%TD.AperFunction*%
%TD*%
%TO.P,SW1,2*%
%TO.N,Net-(D1-Pad2)*%
%TA.AperFunction,SMDPad,CuDef*%
G36*
G01*
X18360000Y12690000D02*
X18360000Y11440000D01*
G75*
G02*
X17735000Y10815000I-625000J0D01*
G01*
X16435000Y10815000D01*
G75*
G02*
X15810000Y11440000I0J625000D01*
G01*
X15810000Y12690000D01*
G75*
G02*
X16435000Y13315000I625000J0D01*
G01*
X17735000Y13315000D01*
G75*
G02*
X18360000Y12690000I0J-625000D01*
G01*
G37*
%TD.AperFunction*%
%TO.P,SW1,1*%
%TO.N,Col1*%
%TA.AperFunction,SMDPad,CuDef*%
G36*
G01*
X4510000Y15230000D02*
X4510000Y13980000D01*
G75*
G02*
X3885000Y13355000I-625000J0D01*
G01*
X2585000Y13355000D01*
G75*
G02*
X1960000Y13980000I0J625000D01*
G01*
X1960000Y15230000D01*
G75*
G02*
X2585000Y15855000I625000J0D01*
G01*
X3885000Y15855000D01*
G75*
G02*
X4510000Y15230000I0J-625000D01*
G01*
G37*
%TD.AperFunction*%
%TD*%
D12*
%TO.P,J1,12*%
%TO.N,Col1*%
X78625700Y15862300D03*
%TO.P,J1,11*%
%TO.N,Col5*%
X81165700Y15862300D03*
%TO.P,J1,10*%
%TO.N,Col2*%
X78625700Y13322300D03*
%TO.P,J1,9*%
%TO.N,Row1*%
X81165700Y13322300D03*
%TO.P,J1,8*%
%TO.N,Col3*%
X78625700Y10782300D03*
%TO.P,J1,7*%
%TO.N,D1*%
X81165700Y10782300D03*
%TO.P,J1,6*%
%TO.N,Col4*%
X78625700Y8242300D03*
%TO.P,J1,5*%
%TO.N,D0*%
X81165700Y8242300D03*
%TO.P,J1,4*%
%TO.N,RGB_IN*%
X78625700Y5702300D03*
%TO.P,J1,3*%
%TO.N,RGB_OUT*%
X81165700Y5702300D03*
%TO.P,J1,2*%
%TO.N,GND*%
X78625700Y3162300D03*
D13*
%TO.P,J1,1*%
%TO.N,VCC*%
X81165700Y3162300D03*
%TD*%
D14*
%TO.P,D5,4*%
%TO.N,VCC*%
X30975000Y3570000D03*
%TO.P,D5,3*%
%TO.N,Net-(D4-Pad1)*%
X30975000Y5320000D03*
%TO.P,D5,1*%
%TO.N,Net-(D5-Pad1)*%
X26175000Y3570000D03*
%TO.P,D5,2*%
%TO.N,GND*%
X26175000Y5320000D03*
%TD*%
%TO.P,D4,4*%
%TO.N,VCC*%
X50025000Y3570000D03*
%TO.P,D4,3*%
%TO.N,Net-(D3-Pad1)*%
X50025000Y5320000D03*
%TO.P,D4,1*%
%TO.N,Net-(D4-Pad1)*%
X45225000Y3570000D03*
%TO.P,D4,2*%
%TO.N,GND*%
X45225000Y5320000D03*
%TD*%
%TO.P,D3,4*%
%TO.N,VCC*%
X69075000Y3570000D03*
%TO.P,D3,3*%
%TO.N,RGB_IN*%
X69075000Y5320000D03*
%TO.P,D3,1*%
%TO.N,Net-(D3-Pad1)*%
X64275000Y3570000D03*
%TO.P,D3,2*%
%TO.N,GND*%
X64275000Y5320000D03*
%TD*%
%TO.P,D6,4*%
%TO.N,VCC*%
X11925000Y3570000D03*
%TO.P,D6,3*%
%TO.N,Net-(D5-Pad1)*%
X11925000Y5320000D03*
%TO.P,D6,1*%
%TO.N,RGB_OUT*%
X7125000Y3570000D03*
%TO.P,D6,2*%
%TO.N,GND*%
X7125000Y5320000D03*
%TD*%
D15*
%TO.P,D1,6*%
%TO.N,Row1*%
X39037300Y8828800D03*
%TO.P,D1,4*%
%TO.N,Net-(D1-Pad4)*%
X39037300Y7528800D03*
%TO.P,D1,2*%
%TO.N,Net-(D1-Pad2)*%
X37137300Y8178800D03*
%TO.P,D1,5*%
%TO.N,Net-(D1-Pad5)*%
X39037300Y8178800D03*
%TO.P,D1,3*%
%TO.N,Row1*%
X37137300Y7528800D03*
%TO.P,D1,1*%
%TO.N,Net-(D1-Pad1)*%
X37137300Y8828800D03*
%TD*%
D16*
%TO.P,SW5,S1*%
%TO.N,Net-(D2-Pad2)*%
X94765500Y16775000D03*
%TO.P,SW5,S2*%
%TO.N,Row1*%
X89765500Y16775000D03*
D17*
%TO.P,SW5,MP*%
%TO.N,N/C*%
X97865500Y9775000D03*
X86665500Y9775000D03*
D16*
%TO.P,SW5,B*%
%TO.N,D1*%
X94765500Y2275000D03*
%TO.P,SW5,C*%
%TO.N,Net-(C1-Pad2)*%
X92265500Y2275000D03*
D18*
%TO.P,SW5,A*%
%TO.N,D0*%
X89765500Y2275000D03*
%TD*%
D19*
%TO.N,Net-(D1-Pad4)*%
X59115000Y12065000D03*
X74235000Y12065000D03*
%TO.N,Net-(D1-Pad2)*%
X1965000Y12065000D03*
X17085000Y12065000D03*
%TO.N,Net-(D1-Pad5)*%
X40065000Y12065000D03*
X55185000Y12065000D03*
%TO.N,Net-(D1-Pad1)*%
X21015000Y12065000D03*
X36135000Y12065000D03*
%TO.N,Net-(D4-Pad1)*%
X34407076Y4485876D03*
X43127900Y3570002D03*
%TO.N,Net-(D5-Pad1)*%
X24345900Y3568700D03*
X15303500Y4216400D03*
%TO.N,Col1*%
X15815000Y14605000D03*
X3235000Y14605000D03*
%TO.N,Col2*%
X34865000Y14605000D03*
X22285000Y14605000D03*
%TO.N,Col3*%
X53915000Y14605000D03*
X41335000Y14605000D03*
%TO.N,Col4*%
X72965000Y14605000D03*
X60385000Y14605000D03*
%TO.N,VCC*%
X71117040Y4345010D03*
X51714400Y4457700D03*
X32715200Y4432300D03*
X13779500Y4368800D03*
%TO.N,GND*%
X57912000Y5143500D03*
X38849300Y5321300D03*
X94881700Y10299700D03*
X18542000Y6248400D03*
X2235200Y6324600D03*
%TO.N,Net-(D3-Pad1)*%
X53149500Y4457700D03*
X62433200Y3556000D03*
%TO.N,RGB_IN*%
X72390000Y4432300D03*
%TO.N,RGB_OUT*%
X5674998Y3695700D03*
%TD*%
D20*
%TO.N,Net-(D1-Pad4)*%
X74235000Y12065000D02*
X74235000Y12065000D01*
X60365099Y9088567D02*
X59115000Y10338666D01*
X61004647Y8295099D02*
X60365099Y8934647D01*
X62185353Y8295099D02*
X61004647Y8295099D01*
X62824901Y8934647D02*
X62185353Y8295099D01*
X72984901Y8934647D02*
X72345353Y8295099D01*
X59115000Y10338666D02*
X59115000Y12065000D01*
X71164647Y8295099D02*
X70525099Y8934647D01*
X72984901Y9088567D02*
X72984901Y8934647D01*
X60365099Y8934647D02*
X60365099Y9088567D01*
X74235000Y12065000D02*
X74235000Y10338666D01*
X67548666Y12065000D02*
X65801334Y12065000D01*
X72345353Y8295099D02*
X71164647Y8295099D01*
X70525099Y8934647D02*
X70525099Y9088567D01*
X62824901Y9088567D02*
X62824901Y8934647D01*
X74235000Y10338666D02*
X72984901Y9088567D01*
X70525099Y9088567D02*
X67548666Y12065000D01*
X65801334Y12065000D02*
X62824901Y9088567D01*
X54123900Y7073900D02*
X59115000Y12065000D01*
X39037300Y7528800D02*
X39492200Y7073900D01*
X39492200Y7073900D02*
X54123900Y7073900D01*
%TO.N,Net-(D1-Pad2)*%
X17085000Y12065000D02*
X17085000Y12065000D01*
X37137300Y8178800D02*
X34694754Y8178800D01*
X21997901Y7152099D02*
X17085000Y12065000D01*
X33668053Y7152099D02*
X21997901Y7152099D01*
X34694754Y8178800D02*
X33668053Y7152099D01*
X1965000Y10338666D02*
X1965000Y12065000D01*
X3215099Y9088567D02*
X1965000Y10338666D01*
X3854647Y8295099D02*
X3215099Y8934647D01*
X15195353Y8295099D02*
X14014647Y8295099D01*
X5035353Y8295099D02*
X3854647Y8295099D01*
X15834901Y8934647D02*
X15195353Y8295099D01*
X3215099Y8934647D02*
X3215099Y9088567D01*
X17085000Y12065000D02*
X17085000Y10338666D01*
X13375099Y9088567D02*
X10398666Y12065000D01*
X5674901Y8934647D02*
X5035353Y8295099D01*
X17085000Y10338666D02*
X15834901Y9088567D01*
X14014647Y8295099D02*
X13375099Y8934647D01*
X15834901Y9088567D02*
X15834901Y8934647D01*
X8651334Y12065000D02*
X5674901Y9088567D01*
X13375099Y8934647D02*
X13375099Y9088567D01*
X10398666Y12065000D02*
X8651334Y12065000D01*
X5674901Y9088567D02*
X5674901Y8934647D01*
%TO.N,Net-(D1-Pad5)*%
X40065000Y10338666D02*
X40065000Y12065000D01*
X55185000Y12065000D02*
X55185000Y12065000D01*
X39612300Y8178800D02*
X40065000Y8631500D01*
X40065000Y8631500D02*
X40065000Y10338666D01*
X39037300Y8178800D02*
X39612300Y8178800D01*
X41315099Y9088567D02*
X40065000Y10338666D01*
X41315099Y8934647D02*
X41315099Y9088567D01*
X43135353Y8295099D02*
X41954647Y8295099D01*
X43774901Y8934647D02*
X43135353Y8295099D01*
X41954647Y8295099D02*
X41315099Y8934647D01*
X53934901Y8934647D02*
X53295353Y8295099D01*
X46751334Y12065000D02*
X43774901Y9088567D01*
X53934901Y9088567D02*
X53934901Y8934647D01*
X55185000Y12065000D02*
X55185000Y10338666D01*
X55185000Y10338666D02*
X53934901Y9088567D01*
X52114647Y8295099D02*
X51475099Y8934647D01*
X53295353Y8295099D02*
X52114647Y8295099D01*
X48498666Y12065000D02*
X46751334Y12065000D01*
X51475099Y8934647D02*
X51475099Y9088567D01*
X51475099Y9088567D02*
X48498666Y12065000D01*
X43774901Y9088567D02*
X43774901Y8934647D01*
%TO.N,Net-(D1-Pad1)*%
X36135000Y12065000D02*
X36135000Y12065000D01*
X37137300Y11062700D02*
X36135000Y12065000D01*
X37137300Y8828800D02*
X37137300Y11062700D01*
X32425099Y8934647D02*
X32425099Y9088567D01*
X33064647Y8295099D02*
X32425099Y8934647D01*
X36135000Y12065000D02*
X36135000Y10338666D01*
X34884901Y8934647D02*
X34245353Y8295099D01*
X34884901Y9088567D02*
X34884901Y8934647D01*
X32425099Y9088567D02*
X30947901Y10565765D01*
X36135000Y10338666D02*
X34884901Y9088567D01*
X22265099Y9088567D02*
X21015000Y10338666D01*
X24085353Y8295099D02*
X22904647Y8295099D01*
X34245353Y8295099D02*
X33064647Y8295099D01*
X30947901Y10565765D02*
X30947901Y10663993D01*
X30947901Y10663993D02*
X29713993Y11897901D01*
X29713993Y11897901D02*
X27436007Y11897901D01*
X24724901Y8934647D02*
X24085353Y8295099D01*
X27436007Y11897901D02*
X26202099Y10663993D01*
X26202099Y10565765D02*
X24724901Y9088567D01*
X26202099Y10663993D02*
X26202099Y10565765D01*
X21015000Y10338666D02*
X21015000Y12065000D01*
X24724901Y9088567D02*
X24724901Y8934647D01*
X22904647Y8295099D02*
X22265099Y8934647D01*
X22265099Y8934647D02*
X22265099Y9088567D01*
%TO.N,Net-(D4-Pad1)*%
X33572952Y5320000D02*
X34407076Y4485876D01*
X30975000Y5320000D02*
X33572952Y5320000D01*
X45225000Y3570000D02*
X43127902Y3570000D01*
X43127902Y3570000D02*
X43127900Y3570002D01*
X43091102Y3606800D02*
X43127900Y3570002D01*
X34407076Y4485876D02*
X35286152Y3606800D01*
X35286152Y3606800D02*
X43091102Y3606800D01*
%TO.N,Net-(D5-Pad1)*%
X26175000Y3570000D02*
X24347200Y3570000D01*
X24347200Y3570000D02*
X24345900Y3568700D01*
X15951200Y3568700D02*
X15303500Y4216400D01*
X24345900Y3568700D02*
X15951200Y3568700D01*
X14199900Y5320000D02*
X15303500Y4216400D01*
X11925000Y5320000D02*
X14199900Y5320000D01*
%TO.N,Row1*%
X38462300Y8828800D02*
X39037300Y8828800D01*
X37737301Y8103801D02*
X38462300Y8828800D01*
X37737301Y7553801D02*
X37737301Y8103801D01*
X37712300Y7528800D02*
X37737301Y7553801D01*
X37137300Y7528800D02*
X37712300Y7528800D01*
X38567211Y6673889D02*
X37712300Y7528800D01*
X54289589Y6673889D02*
X38567211Y6673889D01*
X79883000Y12039600D02*
X79883000Y7708900D01*
X54471788Y6856088D02*
X54289589Y6673889D01*
X81165700Y13322300D02*
X79883000Y12039600D01*
X79883000Y7708900D02*
X79030188Y6856088D01*
X79030188Y6856088D02*
X54471788Y6856088D01*
%TO.N,Col1*%
X3235000Y14605000D02*
X3235000Y14605000D01*
X13821100Y16598900D02*
X15815000Y14605000D01*
X3235000Y14605000D02*
X5228900Y16598900D01*
X5228900Y16598900D02*
X13821100Y16598900D01*
X17644633Y17684633D02*
X15815000Y15855000D01*
X78625700Y15862300D02*
X76803367Y17684633D01*
X15815000Y15855000D02*
X15815000Y14605000D01*
X76803367Y17684633D02*
X17644633Y17684633D01*
%TO.N,Col2*%
X22285000Y14605000D02*
X22285000Y14605000D01*
X22285000Y14605000D02*
X24215400Y16535400D01*
X32934600Y16535400D02*
X34865000Y14605000D01*
X24215400Y16535400D02*
X32934600Y16535400D01*
X74663378Y17284622D02*
X36294622Y17284622D01*
X78625700Y13322300D02*
X74663378Y17284622D01*
X34865000Y15855000D02*
X34865000Y14605000D01*
X36294622Y17284622D02*
X34865000Y15855000D01*
%TO.N,Col3*%
X41335000Y14605000D02*
X41335000Y14605000D01*
X52035400Y16484600D02*
X53915000Y14605000D01*
X41335000Y14605000D02*
X43214600Y16484600D01*
X43214600Y16484600D02*
X52035400Y16484600D01*
X73398387Y16884611D02*
X78625700Y11657298D01*
X56194611Y16884611D02*
X73398387Y16884611D01*
X78625700Y11657298D02*
X78625700Y10782300D01*
X53915000Y14605000D02*
X56194611Y16884611D01*
%TO.N,Col4*%
X60385000Y14605000D02*
X60385000Y14605000D01*
X77500699Y9367301D02*
X78625700Y8242300D01*
X77500699Y11347111D02*
X77500699Y9367301D01*
X74242810Y14605000D02*
X77500699Y11347111D01*
X72965000Y14605000D02*
X74242810Y14605000D01*
X61798200Y16484600D02*
X71085400Y16484600D01*
X60385000Y15071400D02*
X61798200Y16484600D01*
X60385000Y14605000D02*
X60385000Y15071400D01*
X71085400Y16484600D02*
X72965000Y14605000D01*
D21*
%TO.N,VCC*%
X69075000Y3570000D02*
X70342030Y3570000D01*
X70342030Y3570000D02*
X71117040Y4345010D01*
X50025000Y3570000D02*
X50826700Y3570000D01*
X50826700Y3570000D02*
X51714400Y4457700D01*
X69075000Y2620000D02*
X69075000Y3570000D01*
X68649990Y2194990D02*
X69075000Y2620000D01*
X53977110Y2194990D02*
X68649990Y2194990D01*
X51714400Y4457700D02*
X53977110Y2194990D01*
X31852900Y3570000D02*
X30975000Y3570000D01*
X32715200Y4432300D02*
X31852900Y3570000D01*
X11925000Y3570000D02*
X12980700Y3570000D01*
X12980700Y3570000D02*
X13779500Y4368800D01*
X30549990Y2194990D02*
X30975000Y2620000D01*
X30975000Y2620000D02*
X30975000Y3570000D01*
X15953310Y2194990D02*
X30549990Y2194990D01*
X13779500Y4368800D02*
X15953310Y2194990D01*
X79641700Y1638300D02*
X73823750Y1638300D01*
X73823750Y1638300D02*
X71117040Y4345010D01*
X81165700Y3162300D02*
X79641700Y1638300D01*
X50025000Y2620000D02*
X50025000Y3570000D01*
X32715200Y4432300D02*
X34988500Y2159000D01*
X49564000Y2159000D02*
X50025000Y2620000D01*
X34988500Y2159000D02*
X49564000Y2159000D01*
D20*
%TO.N,Net-(D3-Pad1)*%
X50025000Y5320000D02*
X52287200Y5320000D01*
X52287200Y5320000D02*
X53149500Y4457700D01*
X62447200Y3570000D02*
X62433200Y3556000D01*
X64275000Y3570000D02*
X62447200Y3570000D01*
X54051200Y3556000D02*
X62433200Y3556000D01*
X53149500Y4457700D02*
X54051200Y3556000D01*
%TO.N,RGB_IN*%
X78625700Y5702300D02*
X73660000Y5702300D01*
X73660000Y5702300D02*
X72390000Y4432300D01*
X71502300Y5320000D02*
X72390000Y4432300D01*
X69075000Y5320000D02*
X71502300Y5320000D01*
%TO.N,RGB_OUT*%
X7125000Y3570000D02*
X5800698Y3570000D01*
X5800698Y3570000D02*
X5674998Y3695700D01*
X82613500Y1943100D02*
X82613500Y4254500D01*
X82613500Y4254500D02*
X81165700Y5702300D01*
X5674998Y3695700D02*
X8332409Y1038289D01*
X81708689Y1038289D02*
X82613500Y1943100D01*
X8332409Y1038289D02*
X81708689Y1038289D01*
%TD*%
D22*
%TO.N,GND*%
G36*
X17352386Y18390179D02*
G01*
X17220357Y18319607D01*
X17104632Y18224634D01*
X17080834Y18195636D01*
X15304003Y16418804D01*
X15274999Y16395001D01*
X15233645Y16344610D01*
X15196028Y16298774D01*
X14384904Y17109898D01*
X14361101Y17138901D01*
X14245376Y17233874D01*
X14113347Y17304446D01*
X13970086Y17347903D01*
X13858433Y17358900D01*
X13858422Y17358900D01*
X13821100Y17362576D01*
X13783778Y17358900D01*
X5266222Y17358900D01*
X5228899Y17362576D01*
X5191576Y17358900D01*
X5191567Y17358900D01*
X5079914Y17347903D01*
X4936653Y17304446D01*
X4804624Y17233874D01*
X4804622Y17233873D01*
X4804623Y17233873D01*
X4717896Y17162699D01*
X4717892Y17162695D01*
X4688899Y17138901D01*
X4665105Y17109908D01*
X4033631Y16478433D01*
X3885000Y16493072D01*
X2585000Y16493072D01*
X2338587Y16468802D01*
X2101643Y16396926D01*
X1883275Y16280206D01*
X1691873Y16123127D01*
X1534794Y15931725D01*
X1418074Y15713357D01*
X1346198Y15476413D01*
X1321928Y15230000D01*
X1321928Y13980000D01*
X1346198Y13733587D01*
X1418074Y13496643D01*
X1534794Y13278275D01*
X1691873Y13086873D01*
X1712395Y13070031D01*
X1663102Y13060226D01*
X1474744Y12982205D01*
X1305226Y12868937D01*
X1161063Y12724774D01*
X1047795Y12555256D01*
X969774Y12366898D01*
X930000Y12166939D01*
X930000Y11963061D01*
X969774Y11763102D01*
X1047795Y11574744D01*
X1161063Y11405226D01*
X1205001Y11361288D01*
X1205000Y10375989D01*
X1201324Y10338666D01*
X1205000Y10301344D01*
X1205000Y10301334D01*
X1215997Y10189681D01*
X1251438Y10072847D01*
X1259454Y10046420D01*
X1330026Y9914390D01*
X1341576Y9900317D01*
X1424999Y9798665D01*
X1454003Y9774862D01*
X2476065Y8752800D01*
X2502220Y8666576D01*
X2509553Y8642401D01*
X2580125Y8510371D01*
X2602986Y8482515D01*
X2675098Y8394646D01*
X2704101Y8370844D01*
X3290852Y7784091D01*
X3314646Y7755098D01*
X3343639Y7731304D01*
X3343643Y7731300D01*
X3391409Y7692100D01*
X3430371Y7660125D01*
X3562400Y7589553D01*
X3705661Y7546096D01*
X3817314Y7535099D01*
X3817323Y7535099D01*
X3854646Y7531423D01*
X3891969Y7535099D01*
X4998031Y7535099D01*
X5035353Y7531423D01*
X5072675Y7535099D01*
X5072686Y7535099D01*
X5184339Y7546096D01*
X5327600Y7589553D01*
X5459629Y7660125D01*
X5575354Y7755098D01*
X5599156Y7784101D01*
X6185909Y8370852D01*
X6214902Y8394646D01*
X6238696Y8423639D01*
X6238700Y8423643D01*
X6309874Y8510370D01*
X6309875Y8510371D01*
X6380447Y8642401D01*
X6413936Y8752801D01*
X6901262Y9240126D01*
X6997127Y8758178D01*
X7195299Y8279749D01*
X7483000Y7849174D01*
X7849174Y7483000D01*
X8279749Y7195299D01*
X8758178Y6997127D01*
X9266076Y6896100D01*
X9783924Y6896100D01*
X10291822Y6997127D01*
X10770251Y7195299D01*
X11200826Y7483000D01*
X11567000Y7849174D01*
X11854701Y8279749D01*
X12052873Y8758178D01*
X12148738Y9240126D01*
X12636065Y8752800D01*
X12662220Y8666576D01*
X12669553Y8642401D01*
X12740125Y8510371D01*
X12762986Y8482515D01*
X12835098Y8394646D01*
X12864101Y8370844D01*
X13450852Y7784091D01*
X13474646Y7755098D01*
X13503639Y7731304D01*
X13503643Y7731300D01*
X13551409Y7692100D01*
X13590371Y7660125D01*
X13722400Y7589553D01*
X13865661Y7546096D01*
X13977314Y7535099D01*
X13977323Y7535099D01*
X14014646Y7531423D01*
X14051969Y7535099D01*
X15158031Y7535099D01*
X15195353Y7531423D01*
X15232675Y7535099D01*
X15232686Y7535099D01*
X15344339Y7546096D01*
X15487600Y7589553D01*
X15619629Y7660125D01*
X15735354Y7755098D01*
X15759156Y7784101D01*
X16345909Y8370852D01*
X16374902Y8394646D01*
X16398696Y8423639D01*
X16398700Y8423643D01*
X16469874Y8510370D01*
X16469875Y8510371D01*
X16540447Y8642401D01*
X16573936Y8752801D01*
X17596003Y9774867D01*
X17625001Y9798665D01*
X17655369Y9835668D01*
X17719974Y9914389D01*
X17790546Y10046419D01*
X17806858Y10100194D01*
X17833065Y10186587D01*
X17883632Y10191567D01*
X21434102Y6641096D01*
X21457900Y6612098D01*
X21573625Y6517125D01*
X21705654Y6446553D01*
X21848915Y6403096D01*
X21960568Y6392099D01*
X21960577Y6392099D01*
X21997900Y6388423D01*
X22035223Y6392099D01*
X26195092Y6392099D01*
X26174550Y6324383D01*
X26162398Y6201000D01*
X26047998Y6201000D01*
X26047998Y6105752D01*
X25952750Y6201000D01*
X25375000Y6202843D01*
X25300311Y6195487D01*
X25228492Y6173701D01*
X25162304Y6138322D01*
X25104289Y6090711D01*
X25056678Y6032696D01*
X25021299Y5966508D01*
X24999513Y5894689D01*
X24992157Y5820000D01*
X24994000Y5542250D01*
X25089250Y5447000D01*
X26048000Y5447000D01*
X26048000Y5467000D01*
X26165000Y5467000D01*
X26165000Y5173000D01*
X26048000Y5173000D01*
X26048000Y5193000D01*
X25089250Y5193000D01*
X24994000Y5097750D01*
X24992157Y4820000D01*
X24999513Y4745311D01*
X25021299Y4673492D01*
X25051453Y4617079D01*
X25020506Y4600537D01*
X24923815Y4521185D01*
X24874071Y4460571D01*
X24836156Y4485905D01*
X24647798Y4563926D01*
X24447839Y4603700D01*
X24243961Y4603700D01*
X24044002Y4563926D01*
X23855644Y4485905D01*
X23686126Y4372637D01*
X23642189Y4328700D01*
X16336439Y4328700D01*
X16298726Y4518298D01*
X16220705Y4706656D01*
X16107437Y4876174D01*
X15963274Y5020337D01*
X15793756Y5133605D01*
X15605398Y5211626D01*
X15405439Y5251400D01*
X15343302Y5251400D01*
X14763704Y5830998D01*
X14739901Y5860001D01*
X14624176Y5954974D01*
X14492147Y6025546D01*
X14348886Y6069003D01*
X14237233Y6080000D01*
X14237222Y6080000D01*
X14199900Y6083676D01*
X14162578Y6080000D01*
X13306046Y6080000D01*
X13255537Y6174494D01*
X13176185Y6271185D01*
X13079494Y6350537D01*
X12969180Y6409502D01*
X12849482Y6445812D01*
X12725000Y6458072D01*
X11882750Y6458072D01*
X11826425Y6563450D01*
X11743948Y6663948D01*
X11643450Y6746425D01*
X11528793Y6807710D01*
X11404383Y6845450D01*
X11307419Y6855000D01*
X11275000Y6858193D01*
X11242581Y6855000D01*
X7807419Y6855000D01*
X7775000Y6858193D01*
X7742581Y6855000D01*
X7645617Y6845450D01*
X7521207Y6807710D01*
X7406550Y6746425D01*
X7306052Y6663948D01*
X7223575Y6563450D01*
X7162290Y6448793D01*
X7124550Y6324383D01*
X7112398Y6201000D01*
X6997998Y6201000D01*
X6997998Y6105752D01*
X6902750Y6201000D01*
X6325000Y6202843D01*
X6250311Y6195487D01*
X6178492Y6173701D01*
X6112304Y6138322D01*
X6054289Y6090711D01*
X6006678Y6032696D01*
X5971299Y5966508D01*
X5949513Y5894689D01*
X5942157Y5820000D01*
X5944000Y5542250D01*
X6039250Y5447000D01*
X6998000Y5447000D01*
X6998000Y5467000D01*
X7115000Y5467000D01*
X7115000Y5173000D01*
X6998000Y5173000D01*
X6998000Y5193000D01*
X6039250Y5193000D01*
X5944000Y5097750D01*
X5942157Y4820000D01*
X5949513Y4745311D01*
X5965311Y4693230D01*
X5776937Y4730700D01*
X5573059Y4730700D01*
X5373100Y4690926D01*
X5184742Y4612905D01*
X5015224Y4499637D01*
X4871061Y4355474D01*
X4757793Y4185956D01*
X4679772Y3997598D01*
X4639998Y3797639D01*
X4639998Y3593761D01*
X4679772Y3393802D01*
X4757793Y3205444D01*
X4871061Y3035926D01*
X5015224Y2891763D01*
X5184742Y2778495D01*
X5373100Y2700474D01*
X5573059Y2660700D01*
X5635197Y2660700D01*
X7660896Y635000D01*
X660000Y635000D01*
X660000Y18415000D01*
X17434211Y18415000D01*
X17352386Y18390179D01*
G37*
X17352386Y18390179D02*
X17220357Y18319607D01*
X17104632Y18224634D01*
X17080834Y18195636D01*
X15304003Y16418804D01*
X15274999Y16395001D01*
X15233645Y16344610D01*
X15196028Y16298774D01*
X14384904Y17109898D01*
X14361101Y17138901D01*
X14245376Y17233874D01*
X14113347Y17304446D01*
X13970086Y17347903D01*
X13858433Y17358900D01*
X13858422Y17358900D01*
X13821100Y17362576D01*
X13783778Y17358900D01*
X5266222Y17358900D01*
X5228899Y17362576D01*
X5191576Y17358900D01*
X5191567Y17358900D01*
X5079914Y17347903D01*
X4936653Y17304446D01*
X4804624Y17233874D01*
X4804622Y17233873D01*
X4804623Y17233873D01*
X4717896Y17162699D01*
X4717892Y17162695D01*
X4688899Y17138901D01*
X4665105Y17109908D01*
X4033631Y16478433D01*
X3885000Y16493072D01*
X2585000Y16493072D01*
X2338587Y16468802D01*
X2101643Y16396926D01*
X1883275Y16280206D01*
X1691873Y16123127D01*
X1534794Y15931725D01*
X1418074Y15713357D01*
X1346198Y15476413D01*
X1321928Y15230000D01*
X1321928Y13980000D01*
X1346198Y13733587D01*
X1418074Y13496643D01*
X1534794Y13278275D01*
X1691873Y13086873D01*
X1712395Y13070031D01*
X1663102Y13060226D01*
X1474744Y12982205D01*
X1305226Y12868937D01*
X1161063Y12724774D01*
X1047795Y12555256D01*
X969774Y12366898D01*
X930000Y12166939D01*
X930000Y11963061D01*
X969774Y11763102D01*
X1047795Y11574744D01*
X1161063Y11405226D01*
X1205001Y11361288D01*
X1205000Y10375989D01*
X1201324Y10338666D01*
X1205000Y10301344D01*
X1205000Y10301334D01*
X1215997Y10189681D01*
X1251438Y10072847D01*
X1259454Y10046420D01*
X1330026Y9914390D01*
X1341576Y9900317D01*
X1424999Y9798665D01*
X1454003Y9774862D01*
X2476065Y8752800D01*
X2502220Y8666576D01*
X2509553Y8642401D01*
X2580125Y8510371D01*
X2602986Y8482515D01*
X2675098Y8394646D01*
X2704101Y8370844D01*
X3290852Y7784091D01*
X3314646Y7755098D01*
X3343639Y7731304D01*
X3343643Y7731300D01*
X3391409Y7692100D01*
X3430371Y7660125D01*
X3562400Y7589553D01*
X3705661Y7546096D01*
X3817314Y7535099D01*
X3817323Y7535099D01*
X3854646Y7531423D01*
X3891969Y7535099D01*
X4998031Y7535099D01*
X5035353Y7531423D01*
X5072675Y7535099D01*
X5072686Y7535099D01*
X5184339Y7546096D01*
X5327600Y7589553D01*
X5459629Y7660125D01*
X5575354Y7755098D01*
X5599156Y7784101D01*
X6185909Y8370852D01*
X6214902Y8394646D01*
X6238696Y8423639D01*
X6238700Y8423643D01*
X6309874Y8510370D01*
X6309875Y8510371D01*
X6380447Y8642401D01*
X6413936Y8752801D01*
X6901262Y9240126D01*
X6997127Y8758178D01*
X7195299Y8279749D01*
X7483000Y7849174D01*
X7849174Y7483000D01*
X8279749Y7195299D01*
X8758178Y6997127D01*
X9266076Y6896100D01*
X9783924Y6896100D01*
X10291822Y6997127D01*
X10770251Y7195299D01*
X11200826Y7483000D01*
X11567000Y7849174D01*
X11854701Y8279749D01*
X12052873Y8758178D01*
X12148738Y9240126D01*
X12636065Y8752800D01*
X12662220Y8666576D01*
X12669553Y8642401D01*
X12740125Y8510371D01*
X12762986Y8482515D01*
X12835098Y8394646D01*
X12864101Y8370844D01*
X13450852Y7784091D01*
X13474646Y7755098D01*
X13503639Y7731304D01*
X13503643Y7731300D01*
X13551409Y7692100D01*
X13590371Y7660125D01*
X13722400Y7589553D01*
X13865661Y7546096D01*
X13977314Y7535099D01*
X13977323Y7535099D01*
X14014646Y7531423D01*
X14051969Y7535099D01*
X15158031Y7535099D01*
X15195353Y7531423D01*
X15232675Y7535099D01*
X15232686Y7535099D01*
X15344339Y7546096D01*
X15487600Y7589553D01*
X15619629Y7660125D01*
X15735354Y7755098D01*
X15759156Y7784101D01*
X16345909Y8370852D01*
X16374902Y8394646D01*
X16398696Y8423639D01*
X16398700Y8423643D01*
X16469874Y8510370D01*
X16469875Y8510371D01*
X16540447Y8642401D01*
X16573936Y8752801D01*
X17596003Y9774867D01*
X17625001Y9798665D01*
X17655369Y9835668D01*
X17719974Y9914389D01*
X17790546Y10046419D01*
X17806858Y10100194D01*
X17833065Y10186587D01*
X17883632Y10191567D01*
X21434102Y6641096D01*
X21457900Y6612098D01*
X21573625Y6517125D01*
X21705654Y6446553D01*
X21848915Y6403096D01*
X21960568Y6392099D01*
X21960577Y6392099D01*
X21997900Y6388423D01*
X22035223Y6392099D01*
X26195092Y6392099D01*
X26174550Y6324383D01*
X26162398Y6201000D01*
X26047998Y6201000D01*
X26047998Y6105752D01*
X25952750Y6201000D01*
X25375000Y6202843D01*
X25300311Y6195487D01*
X25228492Y6173701D01*
X25162304Y6138322D01*
X25104289Y6090711D01*
X25056678Y6032696D01*
X25021299Y5966508D01*
X24999513Y5894689D01*
X24992157Y5820000D01*
X24994000Y5542250D01*
X25089250Y5447000D01*
X26048000Y5447000D01*
X26048000Y5467000D01*
X26165000Y5467000D01*
X26165000Y5173000D01*
X26048000Y5173000D01*
X26048000Y5193000D01*
X25089250Y5193000D01*
X24994000Y5097750D01*
X24992157Y4820000D01*
X24999513Y4745311D01*
X25021299Y4673492D01*
X25051453Y4617079D01*
X25020506Y4600537D01*
X24923815Y4521185D01*
X24874071Y4460571D01*
X24836156Y4485905D01*
X24647798Y4563926D01*
X24447839Y4603700D01*
X24243961Y4603700D01*
X24044002Y4563926D01*
X23855644Y4485905D01*
X23686126Y4372637D01*
X23642189Y4328700D01*
X16336439Y4328700D01*
X16298726Y4518298D01*
X16220705Y4706656D01*
X16107437Y4876174D01*
X15963274Y5020337D01*
X15793756Y5133605D01*
X15605398Y5211626D01*
X15405439Y5251400D01*
X15343302Y5251400D01*
X14763704Y5830998D01*
X14739901Y5860001D01*
X14624176Y5954974D01*
X14492147Y6025546D01*
X14348886Y6069003D01*
X14237233Y6080000D01*
X14237222Y6080000D01*
X14199900Y6083676D01*
X14162578Y6080000D01*
X13306046Y6080000D01*
X13255537Y6174494D01*
X13176185Y6271185D01*
X13079494Y6350537D01*
X12969180Y6409502D01*
X12849482Y6445812D01*
X12725000Y6458072D01*
X11882750Y6458072D01*
X11826425Y6563450D01*
X11743948Y6663948D01*
X11643450Y6746425D01*
X11528793Y6807710D01*
X11404383Y6845450D01*
X11307419Y6855000D01*
X11275000Y6858193D01*
X11242581Y6855000D01*
X7807419Y6855000D01*
X7775000Y6858193D01*
X7742581Y6855000D01*
X7645617Y6845450D01*
X7521207Y6807710D01*
X7406550Y6746425D01*
X7306052Y6663948D01*
X7223575Y6563450D01*
X7162290Y6448793D01*
X7124550Y6324383D01*
X7112398Y6201000D01*
X6997998Y6201000D01*
X6997998Y6105752D01*
X6902750Y6201000D01*
X6325000Y6202843D01*
X6250311Y6195487D01*
X6178492Y6173701D01*
X6112304Y6138322D01*
X6054289Y6090711D01*
X6006678Y6032696D01*
X5971299Y5966508D01*
X5949513Y5894689D01*
X5942157Y5820000D01*
X5944000Y5542250D01*
X6039250Y5447000D01*
X6998000Y5447000D01*
X6998000Y5467000D01*
X7115000Y5467000D01*
X7115000Y5173000D01*
X6998000Y5173000D01*
X6998000Y5193000D01*
X6039250Y5193000D01*
X5944000Y5097750D01*
X5942157Y4820000D01*
X5949513Y4745311D01*
X5965311Y4693230D01*
X5776937Y4730700D01*
X5573059Y4730700D01*
X5373100Y4690926D01*
X5184742Y4612905D01*
X5015224Y4499637D01*
X4871061Y4355474D01*
X4757793Y4185956D01*
X4679772Y3997598D01*
X4639998Y3797639D01*
X4639998Y3593761D01*
X4679772Y3393802D01*
X4757793Y3205444D01*
X4871061Y3035926D01*
X5015224Y2891763D01*
X5184742Y2778495D01*
X5373100Y2700474D01*
X5573059Y2660700D01*
X5635197Y2660700D01*
X7660896Y635000D01*
X660000Y635000D01*
X660000Y18415000D01*
X17434211Y18415000D01*
X17352386Y18390179D01*
G36*
X99339800Y11798019D02*
G01*
X99316685Y11826185D01*
X99219994Y11905537D01*
X99109680Y11964502D01*
X98989982Y12000812D01*
X98865500Y12013072D01*
X96865500Y12013072D01*
X96741018Y12000812D01*
X96621320Y11964502D01*
X96511006Y11905537D01*
X96414315Y11826185D01*
X96334963Y11729494D01*
X96275998Y11619180D01*
X96239688Y11499482D01*
X96227428Y11375000D01*
X96227428Y8175000D01*
X96239688Y8050518D01*
X96275998Y7930820D01*
X96334963Y7820506D01*
X96414315Y7723815D01*
X96511006Y7644463D01*
X96621320Y7585498D01*
X96741018Y7549188D01*
X96865500Y7536928D01*
X98865500Y7536928D01*
X98989982Y7549188D01*
X99109680Y7585498D01*
X99219994Y7644463D01*
X99316685Y7723815D01*
X99339801Y7751982D01*
X99339801Y635000D01*
X82380201Y635000D01*
X83124504Y1379302D01*
X83153501Y1403099D01*
X83179832Y1435183D01*
X83248474Y1518823D01*
X83319046Y1650853D01*
X83325844Y1673263D01*
X83362503Y1794114D01*
X83373500Y1905767D01*
X83373500Y1905777D01*
X83377176Y1943100D01*
X83373500Y1980422D01*
X83373500Y3275000D01*
X88127428Y3275000D01*
X88127428Y1275000D01*
X88139688Y1150518D01*
X88175998Y1030820D01*
X88234963Y920506D01*
X88314315Y823815D01*
X88411006Y744463D01*
X88521320Y685498D01*
X88641018Y649188D01*
X88765500Y636928D01*
X90765500Y636928D01*
X90889982Y649188D01*
X91009680Y685498D01*
X91119994Y744463D01*
X91216685Y823815D01*
X91296037Y920506D01*
X91310165Y946937D01*
X91491037Y826082D01*
X91788588Y702832D01*
X92104467Y640000D01*
X92426533Y640000D01*
X92742412Y702832D01*
X93039963Y826082D01*
X93307752Y1005013D01*
X93515500Y1212761D01*
X93723248Y1005013D01*
X93991037Y826082D01*
X94288588Y702832D01*
X94604467Y640000D01*
X94926533Y640000D01*
X95242412Y702832D01*
X95539963Y826082D01*
X95807752Y1005013D01*
X96035487Y1232748D01*
X96214418Y1500537D01*
X96337668Y1798088D01*
X96400500Y2113967D01*
X96400500Y2436033D01*
X96337668Y2751912D01*
X96214418Y3049463D01*
X96035487Y3317252D01*
X95807752Y3544987D01*
X95539963Y3723918D01*
X95242412Y3847168D01*
X94926533Y3910000D01*
X94604467Y3910000D01*
X94288588Y3847168D01*
X93991037Y3723918D01*
X93723248Y3544987D01*
X93515500Y3337239D01*
X93307752Y3544987D01*
X93039963Y3723918D01*
X92742412Y3847168D01*
X92426533Y3910000D01*
X92104467Y3910000D01*
X91788588Y3847168D01*
X91491037Y3723918D01*
X91310165Y3603063D01*
X91296037Y3629494D01*
X91216685Y3726185D01*
X91119994Y3805537D01*
X91009680Y3864502D01*
X90889982Y3900812D01*
X90765500Y3913072D01*
X88765500Y3913072D01*
X88641018Y3900812D01*
X88521320Y3864502D01*
X88411006Y3805537D01*
X88314315Y3726185D01*
X88234963Y3629494D01*
X88175998Y3519180D01*
X88139688Y3399482D01*
X88127428Y3275000D01*
X83373500Y3275000D01*
X83373500Y4217178D01*
X83377176Y4254501D01*
X83373500Y4291824D01*
X83373500Y4291833D01*
X83362503Y4403486D01*
X83319046Y4546747D01*
X83248474Y4678776D01*
X83231466Y4699500D01*
X83177299Y4765504D01*
X83177295Y4765508D01*
X83153501Y4794501D01*
X83124508Y4818295D01*
X82606910Y5335893D01*
X82650700Y5556040D01*
X82650700Y5848560D01*
X82593632Y6135458D01*
X82481690Y6405711D01*
X82319175Y6648932D01*
X82112332Y6855775D01*
X81937940Y6972300D01*
X82112332Y7088825D01*
X82319175Y7295668D01*
X82481690Y7538889D01*
X82593632Y7809142D01*
X82650700Y8096040D01*
X82650700Y8388560D01*
X82593632Y8675458D01*
X82481690Y8945711D01*
X82319175Y9188932D01*
X82112332Y9395775D01*
X81937940Y9512300D01*
X82112332Y9628825D01*
X82319175Y9835668D01*
X82481690Y10078889D01*
X82593632Y10349142D01*
X82650700Y10636040D01*
X82650700Y10928560D01*
X82593632Y11215458D01*
X82527548Y11375000D01*
X85027428Y11375000D01*
X85027428Y8175000D01*
X85039688Y8050518D01*
X85075998Y7930820D01*
X85134963Y7820506D01*
X85214315Y7723815D01*
X85311006Y7644463D01*
X85421320Y7585498D01*
X85541018Y7549188D01*
X85665500Y7536928D01*
X87665500Y7536928D01*
X87789982Y7549188D01*
X87909680Y7585498D01*
X88019994Y7644463D01*
X88116685Y7723815D01*
X88196037Y7820506D01*
X88255002Y7930820D01*
X88291312Y8050518D01*
X88303572Y8175000D01*
X88303572Y11375000D01*
X88291312Y11499482D01*
X88255002Y11619180D01*
X88196037Y11729494D01*
X88116685Y11826185D01*
X88019994Y11905537D01*
X87909680Y11964502D01*
X87789982Y12000812D01*
X87665500Y12013072D01*
X85665500Y12013072D01*
X85541018Y12000812D01*
X85421320Y11964502D01*
X85311006Y11905537D01*
X85214315Y11826185D01*
X85134963Y11729494D01*
X85075998Y11619180D01*
X85039688Y11499482D01*
X85027428Y11375000D01*
X82527548Y11375000D01*
X82481690Y11485711D01*
X82319175Y11728932D01*
X82112332Y11935775D01*
X81937940Y12052300D01*
X82112332Y12168825D01*
X82319175Y12375668D01*
X82481690Y12618889D01*
X82593632Y12889142D01*
X82650700Y13176040D01*
X82650700Y13468560D01*
X82593632Y13755458D01*
X82481690Y14025711D01*
X82319175Y14268932D01*
X82112332Y14475775D01*
X81937940Y14592300D01*
X82112332Y14708825D01*
X82319175Y14915668D01*
X82481690Y15158889D01*
X82593632Y15429142D01*
X82650700Y15716040D01*
X82650700Y16008560D01*
X82593632Y16295458D01*
X82481690Y16565711D01*
X82319175Y16808932D01*
X82192074Y16936033D01*
X88130500Y16936033D01*
X88130500Y16613967D01*
X88193332Y16298088D01*
X88316582Y16000537D01*
X88495513Y15732748D01*
X88723248Y15505013D01*
X88991037Y15326082D01*
X89288588Y15202832D01*
X89604467Y15140000D01*
X89926533Y15140000D01*
X90242412Y15202832D01*
X90539963Y15326082D01*
X90807752Y15505013D01*
X91035487Y15732748D01*
X91214418Y16000537D01*
X91337668Y16298088D01*
X91400500Y16613967D01*
X91400500Y16936033D01*
X93130500Y16936033D01*
X93130500Y16613967D01*
X93193332Y16298088D01*
X93316582Y16000537D01*
X93495513Y15732748D01*
X93723248Y15505013D01*
X93991037Y15326082D01*
X94288588Y15202832D01*
X94604467Y15140000D01*
X94926533Y15140000D01*
X95242412Y15202832D01*
X95539963Y15326082D01*
X95807752Y15505013D01*
X96035487Y15732748D01*
X96214418Y16000537D01*
X96337668Y16298088D01*
X96400500Y16613967D01*
X96400500Y16936033D01*
X96337668Y17251912D01*
X96214418Y17549463D01*
X96035487Y17817252D01*
X95807752Y18044987D01*
X95539963Y18223918D01*
X95242412Y18347168D01*
X94926533Y18410000D01*
X94604467Y18410000D01*
X94288588Y18347168D01*
X93991037Y18223918D01*
X93723248Y18044987D01*
X93495513Y17817252D01*
X93316582Y17549463D01*
X93193332Y17251912D01*
X93130500Y16936033D01*
X91400500Y16936033D01*
X91337668Y17251912D01*
X91214418Y17549463D01*
X91035487Y17817252D01*
X90807752Y18044987D01*
X90539963Y18223918D01*
X90242412Y18347168D01*
X89926533Y18410000D01*
X89604467Y18410000D01*
X89288588Y18347168D01*
X88991037Y18223918D01*
X88723248Y18044987D01*
X88495513Y17817252D01*
X88316582Y17549463D01*
X88193332Y17251912D01*
X88130500Y16936033D01*
X82192074Y16936033D01*
X82112332Y17015775D01*
X81869111Y17178290D01*
X81598858Y17290232D01*
X81311960Y17347300D01*
X81019440Y17347300D01*
X80732542Y17290232D01*
X80462289Y17178290D01*
X80219068Y17015775D01*
X80012225Y16808932D01*
X79895700Y16634540D01*
X79779175Y16808932D01*
X79572332Y17015775D01*
X79329111Y17178290D01*
X79058858Y17290232D01*
X78771960Y17347300D01*
X78479440Y17347300D01*
X78259292Y17303510D01*
X77367171Y18195630D01*
X77343368Y18224634D01*
X77227643Y18319607D01*
X77095614Y18390179D01*
X77013789Y18415000D01*
X99339800Y18415000D01*
X99339800Y11798019D01*
G37*
X99339800Y11798019D02*
X99316685Y11826185D01*
X99219994Y11905537D01*
X99109680Y11964502D01*
X98989982Y12000812D01*
X98865500Y12013072D01*
X96865500Y12013072D01*
X96741018Y12000812D01*
X96621320Y11964502D01*
X96511006Y11905537D01*
X96414315Y11826185D01*
X96334963Y11729494D01*
X96275998Y11619180D01*
X96239688Y11499482D01*
X96227428Y11375000D01*
X96227428Y8175000D01*
X96239688Y8050518D01*
X96275998Y7930820D01*
X96334963Y7820506D01*
X96414315Y7723815D01*
X96511006Y7644463D01*
X96621320Y7585498D01*
X96741018Y7549188D01*
X96865500Y7536928D01*
X98865500Y7536928D01*
X98989982Y7549188D01*
X99109680Y7585498D01*
X99219994Y7644463D01*
X99316685Y7723815D01*
X99339801Y7751982D01*
X99339801Y635000D01*
X82380201Y635000D01*
X83124504Y1379302D01*
X83153501Y1403099D01*
X83179832Y1435183D01*
X83248474Y1518823D01*
X83319046Y1650853D01*
X83325844Y1673263D01*
X83362503Y1794114D01*
X83373500Y1905767D01*
X83373500Y1905777D01*
X83377176Y1943100D01*
X83373500Y1980422D01*
X83373500Y3275000D01*
X88127428Y3275000D01*
X88127428Y1275000D01*
X88139688Y1150518D01*
X88175998Y1030820D01*
X88234963Y920506D01*
X88314315Y823815D01*
X88411006Y744463D01*
X88521320Y685498D01*
X88641018Y649188D01*
X88765500Y636928D01*
X90765500Y636928D01*
X90889982Y649188D01*
X91009680Y685498D01*
X91119994Y744463D01*
X91216685Y823815D01*
X91296037Y920506D01*
X91310165Y946937D01*
X91491037Y826082D01*
X91788588Y702832D01*
X92104467Y640000D01*
X92426533Y640000D01*
X92742412Y702832D01*
X93039963Y826082D01*
X93307752Y1005013D01*
X93515500Y1212761D01*
X93723248Y1005013D01*
X93991037Y826082D01*
X94288588Y702832D01*
X94604467Y640000D01*
X94926533Y640000D01*
X95242412Y702832D01*
X95539963Y826082D01*
X95807752Y1005013D01*
X96035487Y1232748D01*
X96214418Y1500537D01*
X96337668Y1798088D01*
X96400500Y2113967D01*
X96400500Y2436033D01*
X96337668Y2751912D01*
X96214418Y3049463D01*
X96035487Y3317252D01*
X95807752Y3544987D01*
X95539963Y3723918D01*
X95242412Y3847168D01*
X94926533Y3910000D01*
X94604467Y3910000D01*
X94288588Y3847168D01*
X93991037Y3723918D01*
X93723248Y3544987D01*
X93515500Y3337239D01*
X93307752Y3544987D01*
X93039963Y3723918D01*
X92742412Y3847168D01*
X92426533Y3910000D01*
X92104467Y3910000D01*
X91788588Y3847168D01*
X91491037Y3723918D01*
X91310165Y3603063D01*
X91296037Y3629494D01*
X91216685Y3726185D01*
X91119994Y3805537D01*
X91009680Y3864502D01*
X90889982Y3900812D01*
X90765500Y3913072D01*
X88765500Y3913072D01*
X88641018Y3900812D01*
X88521320Y3864502D01*
X88411006Y3805537D01*
X88314315Y3726185D01*
X88234963Y3629494D01*
X88175998Y3519180D01*
X88139688Y3399482D01*
X88127428Y3275000D01*
X83373500Y3275000D01*
X83373500Y4217178D01*
X83377176Y4254501D01*
X83373500Y4291824D01*
X83373500Y4291833D01*
X83362503Y4403486D01*
X83319046Y4546747D01*
X83248474Y4678776D01*
X83231466Y4699500D01*
X83177299Y4765504D01*
X83177295Y4765508D01*
X83153501Y4794501D01*
X83124508Y4818295D01*
X82606910Y5335893D01*
X82650700Y5556040D01*
X82650700Y5848560D01*
X82593632Y6135458D01*
X82481690Y6405711D01*
X82319175Y6648932D01*
X82112332Y6855775D01*
X81937940Y6972300D01*
X82112332Y7088825D01*
X82319175Y7295668D01*
X82481690Y7538889D01*
X82593632Y7809142D01*
X82650700Y8096040D01*
X82650700Y8388560D01*
X82593632Y8675458D01*
X82481690Y8945711D01*
X82319175Y9188932D01*
X82112332Y9395775D01*
X81937940Y9512300D01*
X82112332Y9628825D01*
X82319175Y9835668D01*
X82481690Y10078889D01*
X82593632Y10349142D01*
X82650700Y10636040D01*
X82650700Y10928560D01*
X82593632Y11215458D01*
X82527548Y11375000D01*
X85027428Y11375000D01*
X85027428Y8175000D01*
X85039688Y8050518D01*
X85075998Y7930820D01*
X85134963Y7820506D01*
X85214315Y7723815D01*
X85311006Y7644463D01*
X85421320Y7585498D01*
X85541018Y7549188D01*
X85665500Y7536928D01*
X87665500Y7536928D01*
X87789982Y7549188D01*
X87909680Y7585498D01*
X88019994Y7644463D01*
X88116685Y7723815D01*
X88196037Y7820506D01*
X88255002Y7930820D01*
X88291312Y8050518D01*
X88303572Y8175000D01*
X88303572Y11375000D01*
X88291312Y11499482D01*
X88255002Y11619180D01*
X88196037Y11729494D01*
X88116685Y11826185D01*
X88019994Y11905537D01*
X87909680Y11964502D01*
X87789982Y12000812D01*
X87665500Y12013072D01*
X85665500Y12013072D01*
X85541018Y12000812D01*
X85421320Y11964502D01*
X85311006Y11905537D01*
X85214315Y11826185D01*
X85134963Y11729494D01*
X85075998Y11619180D01*
X85039688Y11499482D01*
X85027428Y11375000D01*
X82527548Y11375000D01*
X82481690Y11485711D01*
X82319175Y11728932D01*
X82112332Y11935775D01*
X81937940Y12052300D01*
X82112332Y12168825D01*
X82319175Y12375668D01*
X82481690Y12618889D01*
X82593632Y12889142D01*
X82650700Y13176040D01*
X82650700Y13468560D01*
X82593632Y13755458D01*
X82481690Y14025711D01*
X82319175Y14268932D01*
X82112332Y14475775D01*
X81937940Y14592300D01*
X82112332Y14708825D01*
X82319175Y14915668D01*
X82481690Y15158889D01*
X82593632Y15429142D01*
X82650700Y15716040D01*
X82650700Y16008560D01*
X82593632Y16295458D01*
X82481690Y16565711D01*
X82319175Y16808932D01*
X82192074Y16936033D01*
X88130500Y16936033D01*
X88130500Y16613967D01*
X88193332Y16298088D01*
X88316582Y16000537D01*
X88495513Y15732748D01*
X88723248Y15505013D01*
X88991037Y15326082D01*
X89288588Y15202832D01*
X89604467Y15140000D01*
X89926533Y15140000D01*
X90242412Y15202832D01*
X90539963Y15326082D01*
X90807752Y15505013D01*
X91035487Y15732748D01*
X91214418Y16000537D01*
X91337668Y16298088D01*
X91400500Y16613967D01*
X91400500Y16936033D01*
X93130500Y16936033D01*
X93130500Y16613967D01*
X93193332Y16298088D01*
X93316582Y16000537D01*
X93495513Y15732748D01*
X93723248Y15505013D01*
X93991037Y15326082D01*
X94288588Y15202832D01*
X94604467Y15140000D01*
X94926533Y15140000D01*
X95242412Y15202832D01*
X95539963Y15326082D01*
X95807752Y15505013D01*
X96035487Y15732748D01*
X96214418Y16000537D01*
X96337668Y16298088D01*
X96400500Y16613967D01*
X96400500Y16936033D01*
X96337668Y17251912D01*
X96214418Y17549463D01*
X96035487Y17817252D01*
X95807752Y18044987D01*
X95539963Y18223918D01*
X95242412Y18347168D01*
X94926533Y18410000D01*
X94604467Y18410000D01*
X94288588Y18347168D01*
X93991037Y18223918D01*
X93723248Y18044987D01*
X93495513Y17817252D01*
X93316582Y17549463D01*
X93193332Y17251912D01*
X93130500Y16936033D01*
X91400500Y16936033D01*
X91337668Y17251912D01*
X91214418Y17549463D01*
X91035487Y17817252D01*
X90807752Y18044987D01*
X90539963Y18223918D01*
X90242412Y18347168D01*
X89926533Y18410000D01*
X89604467Y18410000D01*
X89288588Y18347168D01*
X88991037Y18223918D01*
X88723248Y18044987D01*
X88495513Y17817252D01*
X88316582Y17549463D01*
X88193332Y17251912D01*
X88130500Y16936033D01*
X82192074Y16936033D01*
X82112332Y17015775D01*
X81869111Y17178290D01*
X81598858Y17290232D01*
X81311960Y17347300D01*
X81019440Y17347300D01*
X80732542Y17290232D01*
X80462289Y17178290D01*
X80219068Y17015775D01*
X80012225Y16808932D01*
X79895700Y16634540D01*
X79779175Y16808932D01*
X79572332Y17015775D01*
X79329111Y17178290D01*
X79058858Y17290232D01*
X78771960Y17347300D01*
X78479440Y17347300D01*
X78259292Y17303510D01*
X77367171Y18195630D01*
X77343368Y18224634D01*
X77227643Y18319607D01*
X77095614Y18390179D01*
X77013789Y18415000D01*
X99339800Y18415000D01*
X99339800Y11798019D01*
G36*
X77472225Y4755668D02*
G01*
X77679068Y4548825D01*
X77922289Y4386310D01*
X78149600Y4292155D01*
X78082751Y4267099D01*
X77877648Y4139947D01*
X77701292Y3975224D01*
X77560461Y3779261D01*
X77460566Y3559588D01*
X77436211Y3479280D01*
X77497073Y3289300D01*
X78498700Y3289300D01*
X78498700Y3309300D01*
X78752700Y3309300D01*
X78752700Y3289300D01*
X78772700Y3289300D01*
X78772700Y3035300D01*
X78752700Y3035300D01*
X78752700Y3015300D01*
X78498700Y3015300D01*
X78498700Y3035300D01*
X77497073Y3035300D01*
X77436211Y2845320D01*
X77460566Y2765012D01*
X77560461Y2545339D01*
X77594266Y2498300D01*
X74179974Y2498300D01*
X73049842Y3628431D01*
X73193937Y3772526D01*
X73307205Y3942044D01*
X73385226Y4130402D01*
X73425000Y4330361D01*
X73425000Y4392499D01*
X73974802Y4942300D01*
X77347522Y4942300D01*
X77472225Y4755668D01*
G37*
X77472225Y4755668D02*
X77679068Y4548825D01*
X77922289Y4386310D01*
X78149600Y4292155D01*
X78082751Y4267099D01*
X77877648Y4139947D01*
X77701292Y3975224D01*
X77560461Y3779261D01*
X77460566Y3559588D01*
X77436211Y3479280D01*
X77497073Y3289300D01*
X78498700Y3289300D01*
X78498700Y3309300D01*
X78752700Y3309300D01*
X78752700Y3289300D01*
X78772700Y3289300D01*
X78772700Y3035300D01*
X78752700Y3035300D01*
X78752700Y3015300D01*
X78498700Y3015300D01*
X78498700Y3035300D01*
X77497073Y3035300D01*
X77436211Y2845320D01*
X77460566Y2765012D01*
X77560461Y2545339D01*
X77594266Y2498300D01*
X74179974Y2498300D01*
X73049842Y3628431D01*
X73193937Y3772526D01*
X73307205Y3942044D01*
X73385226Y4130402D01*
X73425000Y4330361D01*
X73425000Y4392499D01*
X73974802Y4942300D01*
X77347522Y4942300D01*
X77472225Y4755668D01*
G36*
X63204289Y6090711D02*
G01*
X63156678Y6032696D01*
X63121299Y5966508D01*
X63099513Y5894689D01*
X63092157Y5820000D01*
X63094000Y5542250D01*
X63189250Y5447000D01*
X64148000Y5447000D01*
X64148000Y5467000D01*
X64265000Y5467000D01*
X64265000Y5173000D01*
X64148000Y5173000D01*
X64148000Y5193000D01*
X63189250Y5193000D01*
X63094000Y5097750D01*
X63092157Y4820000D01*
X63099513Y4745311D01*
X63121299Y4673492D01*
X63151453Y4617079D01*
X63120506Y4600537D01*
X63023815Y4521185D01*
X62962842Y4446888D01*
X62923456Y4473205D01*
X62735098Y4551226D01*
X62535139Y4591000D01*
X62331261Y4591000D01*
X62131302Y4551226D01*
X61942944Y4473205D01*
X61773426Y4359937D01*
X61729489Y4316000D01*
X54366002Y4316000D01*
X54184500Y4497502D01*
X54184500Y4559639D01*
X54144726Y4759598D01*
X54066705Y4947956D01*
X53953437Y5117474D01*
X53809274Y5261637D01*
X53639756Y5374905D01*
X53451398Y5452926D01*
X53251439Y5492700D01*
X53189301Y5492700D01*
X52851003Y5830998D01*
X52827201Y5860001D01*
X52761538Y5913889D01*
X54252267Y5913889D01*
X54289589Y5910213D01*
X54326911Y5913889D01*
X54326922Y5913889D01*
X54438575Y5924886D01*
X54581836Y5968343D01*
X54713865Y6038915D01*
X54783531Y6096088D01*
X63210841Y6096088D01*
X63204289Y6090711D01*
G37*
X63204289Y6090711D02*
X63156678Y6032696D01*
X63121299Y5966508D01*
X63099513Y5894689D01*
X63092157Y5820000D01*
X63094000Y5542250D01*
X63189250Y5447000D01*
X64148000Y5447000D01*
X64148000Y5467000D01*
X64265000Y5467000D01*
X64265000Y5173000D01*
X64148000Y5173000D01*
X64148000Y5193000D01*
X63189250Y5193000D01*
X63094000Y5097750D01*
X63092157Y4820000D01*
X63099513Y4745311D01*
X63121299Y4673492D01*
X63151453Y4617079D01*
X63120506Y4600537D01*
X63023815Y4521185D01*
X62962842Y4446888D01*
X62923456Y4473205D01*
X62735098Y4551226D01*
X62535139Y4591000D01*
X62331261Y4591000D01*
X62131302Y4551226D01*
X61942944Y4473205D01*
X61773426Y4359937D01*
X61729489Y4316000D01*
X54366002Y4316000D01*
X54184500Y4497502D01*
X54184500Y4559639D01*
X54144726Y4759598D01*
X54066705Y4947956D01*
X53953437Y5117474D01*
X53809274Y5261637D01*
X53639756Y5374905D01*
X53451398Y5452926D01*
X53251439Y5492700D01*
X53189301Y5492700D01*
X52851003Y5830998D01*
X52827201Y5860001D01*
X52761538Y5913889D01*
X54252267Y5913889D01*
X54289589Y5910213D01*
X54326911Y5913889D01*
X54326922Y5913889D01*
X54438575Y5924886D01*
X54581836Y5968343D01*
X54713865Y6038915D01*
X54783531Y6096088D01*
X63210841Y6096088D01*
X63204289Y6090711D01*
G36*
X36174228Y7328800D02*
G01*
X36186488Y7204318D01*
X36222798Y7084620D01*
X36281763Y6974306D01*
X36361115Y6877615D01*
X36457806Y6798263D01*
X36568120Y6739298D01*
X36687818Y6702988D01*
X36812300Y6690728D01*
X37462300Y6690728D01*
X37474381Y6691918D01*
X38003412Y6162886D01*
X38027210Y6133888D01*
X38142935Y6038915D01*
X38274964Y5968343D01*
X38418225Y5924886D01*
X38529878Y5913889D01*
X38529886Y5913889D01*
X38567211Y5910213D01*
X38604536Y5913889D01*
X44055337Y5913889D01*
X44049513Y5894689D01*
X44042157Y5820000D01*
X44044000Y5542250D01*
X44139250Y5447000D01*
X45098000Y5447000D01*
X45098000Y5467000D01*
X45215000Y5467000D01*
X45215000Y5173000D01*
X45098000Y5173000D01*
X45098000Y5193000D01*
X44139250Y5193000D01*
X44044000Y5097750D01*
X44042157Y4820000D01*
X44049513Y4745311D01*
X44071299Y4673492D01*
X44101453Y4617079D01*
X44070506Y4600537D01*
X43973815Y4521185D01*
X43894463Y4424494D01*
X43843954Y4330000D01*
X43831613Y4330000D01*
X43787674Y4373939D01*
X43618156Y4487207D01*
X43429798Y4565228D01*
X43229839Y4605002D01*
X43025961Y4605002D01*
X42826002Y4565228D01*
X42637644Y4487207D01*
X42468126Y4373939D01*
X42460987Y4366800D01*
X35600954Y4366800D01*
X35442076Y4525678D01*
X35442076Y4587815D01*
X35402302Y4787774D01*
X35324281Y4976132D01*
X35211013Y5145650D01*
X35066850Y5289813D01*
X34897332Y5403081D01*
X34708974Y5481102D01*
X34509015Y5520876D01*
X34446878Y5520876D01*
X34136755Y5830998D01*
X34112953Y5860001D01*
X33997228Y5954974D01*
X33865199Y6025546D01*
X33721938Y6069003D01*
X33610285Y6080000D01*
X33610274Y6080000D01*
X33572952Y6083676D01*
X33535630Y6080000D01*
X32356046Y6080000D01*
X32305537Y6174494D01*
X32226185Y6271185D01*
X32129494Y6350537D01*
X32051738Y6392099D01*
X33630731Y6392099D01*
X33668053Y6388423D01*
X33705375Y6392099D01*
X33705386Y6392099D01*
X33817039Y6403096D01*
X33960300Y6446553D01*
X34092329Y6517125D01*
X34208054Y6612098D01*
X34231856Y6641101D01*
X35009557Y7418800D01*
X36174228Y7418800D01*
X36174228Y7328800D01*
G37*
X36174228Y7328800D02*
X36186488Y7204318D01*
X36222798Y7084620D01*
X36281763Y6974306D01*
X36361115Y6877615D01*
X36457806Y6798263D01*
X36568120Y6739298D01*
X36687818Y6702988D01*
X36812300Y6690728D01*
X37462300Y6690728D01*
X37474381Y6691918D01*
X38003412Y6162886D01*
X38027210Y6133888D01*
X38142935Y6038915D01*
X38274964Y5968343D01*
X38418225Y5924886D01*
X38529878Y5913889D01*
X38529886Y5913889D01*
X38567211Y5910213D01*
X38604536Y5913889D01*
X44055337Y5913889D01*
X44049513Y5894689D01*
X44042157Y5820000D01*
X44044000Y5542250D01*
X44139250Y5447000D01*
X45098000Y5447000D01*
X45098000Y5467000D01*
X45215000Y5467000D01*
X45215000Y5173000D01*
X45098000Y5173000D01*
X45098000Y5193000D01*
X44139250Y5193000D01*
X44044000Y5097750D01*
X44042157Y4820000D01*
X44049513Y4745311D01*
X44071299Y4673492D01*
X44101453Y4617079D01*
X44070506Y4600537D01*
X43973815Y4521185D01*
X43894463Y4424494D01*
X43843954Y4330000D01*
X43831613Y4330000D01*
X43787674Y4373939D01*
X43618156Y4487207D01*
X43429798Y4565228D01*
X43229839Y4605002D01*
X43025961Y4605002D01*
X42826002Y4565228D01*
X42637644Y4487207D01*
X42468126Y4373939D01*
X42460987Y4366800D01*
X35600954Y4366800D01*
X35442076Y4525678D01*
X35442076Y4587815D01*
X35402302Y4787774D01*
X35324281Y4976132D01*
X35211013Y5145650D01*
X35066850Y5289813D01*
X34897332Y5403081D01*
X34708974Y5481102D01*
X34509015Y5520876D01*
X34446878Y5520876D01*
X34136755Y5830998D01*
X34112953Y5860001D01*
X33997228Y5954974D01*
X33865199Y6025546D01*
X33721938Y6069003D01*
X33610285Y6080000D01*
X33610274Y6080000D01*
X33572952Y6083676D01*
X33535630Y6080000D01*
X32356046Y6080000D01*
X32305537Y6174494D01*
X32226185Y6271185D01*
X32129494Y6350537D01*
X32051738Y6392099D01*
X33630731Y6392099D01*
X33668053Y6388423D01*
X33705375Y6392099D01*
X33705386Y6392099D01*
X33817039Y6403096D01*
X33960300Y6446553D01*
X34092329Y6517125D01*
X34208054Y6612098D01*
X34231856Y6641101D01*
X35009557Y7418800D01*
X36174228Y7418800D01*
X36174228Y7328800D01*
%TD*%
M02*
